<?xml version="1.0" encoding="UTF-8" standalone="no"?>
<svg
   width="16px"
   height="16px"
   viewBox="0 0 16 16"
   version="1.1"
   id="svg4"
   sodipodi:docname="github.svg"
   inkscape:version="1.1 (c68e22c387, 2021-05-23)"
   xmlns:inkscape="http://www.inkscape.org/namespaces/inkscape"
   xmlns:sodipodi="http://sodipodi.sourceforge.net/DTD/sodipodi-0.dtd"
   xmlns="http://www.w3.org/2000/svg"
   xmlns:svg="http://www.w3.org/2000/svg">
  <defs
     id="defs8">
    <clipPath
       clipPathUnits="userSpaceOnUse"
       id="clipPath1225">
      <circle
         style="fill:none;stroke:#000000;stroke-width:0.1;stroke-miterlimit:4;stroke-dasharray:none;stroke-opacity:1"
         id="circle1227"
         cx="8.0268078"
         cy="7.9421668"
         r="7.9703808" />
    </clipPath>
  </defs>
  <sodipodi:namedview
     id="namedview6"
     pagecolor="#ffffff"
     bordercolor="#666666"
     borderopacity="1.0"
     inkscape:pageshadow="2"
     inkscape:pageopacity="0.0"
     inkscape:pagecheckerboard="0"
     showgrid="false"
     inkscape:zoom="35.443727"
     inkscape:cx="7.716457"
     inkscape:cy="7.8857395"
     inkscape:window-width="1920"
     inkscape:window-height="991"
     inkscape:window-x="-9"
     inkscape:window-y="-9"
     inkscape:window-maximized="1"
     inkscape:current-layer="svg4" />
  <path
     fill-rule="evenodd"
     clip-rule="evenodd"
     d="M 7.976,0 A 7.977,7.977 0 0 0 0,7.976 c 0,3.522 2.3,6.507 5.431,7.584 0.392,0.049 0.538,-0.196 0.538,-0.392 v -1.37 C 3.768,14.288 3.279,12.722 3.279,12.722 2.936,11.792 2.398,11.547 2.398,11.547 1.664,11.058 2.446,11.058 2.446,11.058 3.229,11.107 3.67,11.89 3.67,11.89 c 0.734,1.223 1.859,0.88 2.3,0.685 0.048,-0.538 0.293,-0.88 0.489,-1.076 C 4.697,11.303 2.838,10.618 2.838,7.535 2.838,6.655 3.131,5.969 3.67,5.382 3.62,5.235 3.327,4.404 3.768,3.327 c 0,0 0.685,-0.196 2.201,0.832 0.636,-0.196 1.322,-0.245 2.007,-0.245 0.685,0 1.37,0.098 2.006,0.245 1.517,-1.027 2.202,-0.832 2.202,-0.832 0.44,1.077 0.146,1.908 0.097,2.104 a 3.16,3.16 0 0 1 0.832,2.153 c 0,3.083 -1.86,3.719 -3.62,3.915 0.293,0.244 0.538,0.733 0.538,1.467 v 2.202 c 0,0.196 0.146,0.44 0.538,0.392 A 7.984,7.984 0 0 0 16,7.976 C 15.951,3.572 12.38,0 7.976,0 Z"
     fill="#000000"
     id="path2"
     clip-path="url(#clipPath1225)"
     transform="translate(-0.25392363,0.39499232)" />
</svg>
